<svg xmlns="http://www.w3.org/2000/svg" xmlns:xlink="http://www.w3.org/1999/xlink" width="2796" zoomAndPan="magnify" viewBox="0 0 2097 1505.999933" height="2008" preserveAspectRatio="xMidYMid meet" version="1.0"><defs><clipPath id="25ad5a22b8"><path d="M 1048.5 107 L 1946.25 107 L 1946.25 928 L 1048.5 928 Z M 1048.5 107 " clip-rule="nonzero"/></clipPath><clipPath id="d6e48a9148"><path d="M 1048.5 107 L 1946.25 107 L 1946.25 866 L 1048.5 866 Z M 1048.5 107 " clip-rule="nonzero"/></clipPath></defs><g clip-path="url(#25ad5a22b8)"><path fill="#737373" d="M 1941.988281 781.8125 L 1886.15625 781.8125 C 1878.582031 756.628906 1862.554688 734.964844 1841.242188 720.523438 C 1840.890625 720.347656 1840.539062 719.992188 1840.011719 719.816406 C 1838.953125 719.113281 1837.898438 718.410156 1836.839844 717.703125 C 1836.488281 717.527344 1836.136719 717.175781 1835.605469 717 C 1834.550781 716.296875 1833.492188 715.765625 1832.4375 715.0625 C 1832.085938 714.886719 1831.734375 714.710938 1831.203125 714.359375 C 1830.675781 714.179688 1830.324219 713.828125 1829.796875 713.652344 C 1829.617188 713.476562 1829.265625 713.300781 1829.089844 713.300781 C 1829.265625 713.476562 1829.617188 713.476562 1829.972656 713.652344 C 1830.5 713.828125 1830.851562 714.179688 1831.378906 714.359375 L 1831.378906 712.949219 L 1831.554688 712.949219 L 1831.554688 714.359375 C 1831.910156 714.535156 1832.261719 714.710938 1832.789062 715.0625 C 1833.847656 715.589844 1834.902344 716.296875 1835.960938 717 C 1836.3125 717.175781 1836.664062 717.527344 1837.191406 717.703125 C 1838.25 718.410156 1839.304688 719.113281 1840.363281 719.816406 C 1840.714844 719.992188 1841.066406 720.347656 1841.59375 720.523438 L 1841.59375 570.816406 L 1937.230469 570.816406 C 1939.699219 570.816406 1941.636719 568.878906 1941.636719 566.410156 L 1941.636719 495.433594 C 1941.636719 490.324219 1941.460938 485.394531 1940.929688 480.460938 C 1941.460938 479.757812 1941.636719 478.878906 1941.636719 477.996094 C 1941.636719 476.765625 1941.105469 475.53125 1940.226562 474.828125 C 1930.011719 398.738281 1864.84375 339.914062 1785.941406 339.914062 L 1748.074219 339.914062 C 1732.222656 331.109375 1714.960938 324.414062 1696.644531 320.714844 C 1696.46875 320.714844 1696.292969 320.714844 1696.117188 320.539062 C 1684.316406 318.074219 1671.984375 316.839844 1659.480469 316.839844 L 1442.847656 316.839844 C 1421.710938 310.851562 1404.449219 295 1396.523438 274.570312 L 1377.855469 225.253906 C 1373.453125 213.632812 1367.992188 202.710938 1361.476562 192.496094 C 1361.476562 192.496094 1361.476562 192.320312 1361.300781 192.320312 C 1348.617188 172.242188 1332.0625 154.804688 1312.335938 140.890625 C 1312.160156 140.714844 1312.160156 140.714844 1311.984375 140.539062 C 1311.632812 140.1875 1311.105469 139.835938 1310.75 139.660156 C 1279.753906 118.347656 1243.824219 107.25 1206.660156 107.25 C 1206.484375 107.25 1205.957031 107.25 1205.253906 107.25 L 1204.898438 107.25 C 1195.390625 107.425781 1151.359375 109.1875 1111.023438 126.097656 L 1100.28125 114.121094 C 1099.398438 113.0625 1097.992188 112.535156 1096.757812 112.710938 C 1095.347656 112.886719 1094.117188 113.589844 1093.410156 114.648438 L 1065.761719 155.6875 C 1065.230469 156.566406 1064.878906 157.445312 1065.054688 158.503906 C 1065.40625 162.378906 1069.8125 218.035156 1082.316406 270.695312 C 1075.976562 272.984375 1071.21875 279.148438 1071.21875 286.371094 C 1071.21875 295.53125 1078.792969 303.101562 1087.953125 303.101562 L 1091.296875 303.101562 C 1098.519531 325.117188 1107.679688 344.140625 1118.949219 355.589844 C 1119.832031 356.46875 1120.886719 356.820312 1122.121094 356.820312 L 1149.597656 356.820312 C 1149.949219 356.820312 1150.125 356.820312 1150.476562 356.820312 C 1150.652344 356.820312 1150.652344 356.820312 1150.828125 356.820312 C 1151.003906 356.820312 1151.003906 356.820312 1151.179688 356.644531 C 1151.359375 356.644531 1151.535156 356.46875 1151.710938 356.46875 C 1151.886719 356.46875 1151.886719 356.292969 1152.0625 356.292969 C 1152.238281 356.292969 1152.238281 356.117188 1152.414062 355.941406 C 1152.589844 355.941406 1152.589844 355.765625 1152.765625 355.765625 C 1152.941406 355.589844 1152.941406 355.589844 1153.117188 355.414062 C 1153.296875 355.238281 1153.296875 355.238281 1153.296875 355.058594 C 1153.296875 354.882812 1153.472656 354.882812 1153.472656 354.707031 C 1153.472656 354.53125 1153.648438 354.53125 1153.648438 354.355469 C 1153.648438 354.179688 1153.824219 354.003906 1153.824219 354.003906 C 1153.824219 353.828125 1154 353.828125 1154 353.652344 C 1154 353.476562 1154 353.476562 1154 353.300781 C 1154 353.125 1154 352.945312 1154 352.769531 C 1154 352.769531 1154 352.769531 1154 352.59375 L 1154 333.75 L 1161.21875 353.828125 C 1161.21875 354.003906 1161.398438 354.003906 1161.398438 354.179688 C 1161.398438 354.179688 1161.398438 354.355469 1161.574219 354.355469 C 1161.75 354.53125 1161.75 354.707031 1161.925781 354.882812 C 1161.925781 354.882812 1161.925781 354.882812 1161.925781 355.0625 C 1162.101562 355.238281 1162.277344 355.414062 1162.453125 355.589844 L 1162.628906 355.765625 C 1162.804688 355.941406 1162.980469 355.941406 1162.980469 356.117188 L 1163.15625 356.292969 C 1163.335938 356.292969 1163.511719 356.46875 1163.511719 356.46875 C 1163.511719 356.46875 1163.6875 356.46875 1163.863281 356.644531 C 1164.039062 356.644531 1164.214844 356.820312 1164.390625 356.820312 L 1164.566406 356.820312 C 1164.742188 356.820312 1165.09375 356.820312 1165.273438 356.820312 L 1185.351562 356.820312 C 1187.289062 356.820312 1189.046875 355.589844 1189.578125 353.652344 L 1205.605469 302.222656 C 1206.308594 302.046875 1207.191406 301.695312 1207.894531 301.34375 L 1216.699219 326.878906 L 1214.410156 348.191406 C 1213.355469 358.40625 1213 368.621094 1213.355469 378.835938 C 1213.355469 379.191406 1213.355469 379.367188 1213.355469 379.71875 C 1213.707031 389.054688 1214.761719 398.386719 1216.347656 407.546875 L 1216.347656 407.722656 C 1218.988281 422.691406 1223.039062 437.3125 1228.675781 451.578125 L 1267.25 547.566406 L 1267.25 702.910156 C 1260.730469 701.675781 1253.863281 700.972656 1246.992188 700.972656 C 1186.054688 700.972656 1136.386719 749.054688 1133.746094 809.289062 L 1102.042969 809.289062 C 1099.929688 796.433594 1088.832031 786.746094 1075.445312 786.746094 C 1060.652344 786.746094 1048.5 798.898438 1048.5 813.691406 C 1048.5 828.488281 1060.652344 840.640625 1075.445312 840.640625 C 1088.832031 840.640625 1099.929688 830.777344 1102.042969 818.097656 L 1133.746094 818.097656 C 1135.859375 878.859375 1185.703125 927.644531 1246.992188 927.644531 C 1298.246094 927.644531 1341.574219 893.476562 1355.664062 846.804688 C 1355.664062 846.804688 1355.664062 846.628906 1355.664062 846.628906 L 1668.816406 846.628906 C 1682.730469 893.476562 1726.058594 927.46875 1777.484375 927.46875 C 1828.914062 927.46875 1872.066406 893.300781 1886.15625 846.628906 C 1886.507812 845.21875 1887.035156 843.632812 1887.386719 842.226562 C 1887.742188 840.816406 1888.09375 839.230469 1888.445312 837.820312 L 1937.585938 837.820312 L 1937.585938 838 L 1888.445312 838 C 1888.09375 839.40625 1887.742188 840.992188 1887.386719 842.402344 C 1887.035156 843.808594 1886.507812 845.394531 1886.15625 846.804688 L 1941.988281 846.804688 C 1944.453125 846.804688 1946.390625 844.867188 1946.390625 842.402344 L 1946.390625 786.21875 C 1946.390625 783.75 1944.453125 781.8125 1941.988281 781.8125 Z M 1668.816406 781.8125 L 1369.226562 781.8125 L 1369.226562 563.417969 L 1707.914062 567.996094 L 1737.152344 567.644531 L 1737.152344 708.371094 C 1704.394531 720.875 1678.855469 747.996094 1668.816406 781.8125 Z M 1668.816406 781.8125 " fill-opacity="1" fill-rule="nonzero"/></g><path fill="#000000" d="M 1762.164062 348.542969 L 1785.761719 348.542969 C 1859.207031 348.542969 1920.324219 402.789062 1930.890625 473.417969 L 1903.945312 473.417969 C 1891.261719 420.578125 1846.527344 379.894531 1791.398438 373.554688 C 1782.769531 364.394531 1772.90625 355.941406 1762.164062 348.542969 Z M 1907.644531 504.0625 L 1907.644531 562.007812 L 1932.652344 562.007812 L 1932.652344 495.433594 C 1932.652344 491.03125 1932.476562 486.625 1932.125 482.398438 L 1905.882812 482.398438 C 1907.113281 489.445312 1907.644531 496.664062 1907.644531 504.0625 Z M 1800.558594 384.121094 C 1808.132812 393.457031 1815 403.671875 1820.636719 414.589844 C 1842.828125 427.800781 1859.914062 448.757812 1868.367188 473.59375 L 1895.136719 473.59375 C 1883.511719 428.503906 1846.703125 393.28125 1800.558594 384.121094 Z M 1898.835938 562.007812 L 1898.835938 504.0625 C 1898.835938 496.664062 1898.132812 489.445312 1896.898438 482.398438 L 1870.832031 482.398438 C 1872.769531 490.675781 1874.003906 499.308594 1874.003906 508.113281 L 1874.003906 562.007812 Z M 1840.539062 482.398438 C 1841.066406 487.683594 1841.242188 492.96875 1841.242188 498.425781 L 1841.242188 531.011719 C 1841.242188 531.1875 1841.417969 531.1875 1841.417969 531.363281 C 1841.949219 532.59375 1841.773438 534.003906 1841.242188 535.238281 L 1841.242188 562.183594 L 1865.195312 562.183594 L 1865.195312 508.289062 C 1865.195312 499.308594 1863.964844 490.675781 1861.851562 482.574219 Z M 1828.035156 430.441406 C 1831.027344 438.015625 1833.667969 445.765625 1835.785156 453.867188 C 1836.839844 454.925781 1837.191406 456.507812 1836.839844 458.09375 C 1838.074219 463.203125 1838.953125 468.484375 1839.65625 473.769531 L 1859.207031 473.769531 C 1852.691406 456.507812 1841.949219 441.539062 1828.035156 430.441406 Z M 1345.097656 184.394531 C 1334.527344 170.65625 1322.023438 158.503906 1307.582031 148.289062 C 1286.445312 143.710938 1264.78125 141.242188 1242.941406 141.242188 C 1231.671875 141.242188 1220.398438 141.949219 1209.304688 143.179688 L 1209.304688 166.957031 C 1220.398438 165.550781 1231.671875 164.84375 1242.941406 164.84375 C 1278.34375 164.84375 1312.6875 171.359375 1345.097656 184.394531 Z M 1816.761719 675.082031 L 1832.261719 675.082031 L 1832.261719 629.640625 L 1816.761719 629.640625 Z M 1746.136719 675.082031 L 1764.101562 675.082031 L 1764.101562 629.640625 L 1746.136719 629.640625 Z M 1670.226562 346.253906 C 1670.578125 346.253906 1670.753906 346.253906 1671.105469 346.429688 C 1675.683594 339.738281 1680.792969 333.574219 1686.253906 327.761719 C 1677.445312 326.351562 1668.640625 325.648438 1659.480469 325.648438 L 1444.253906 325.648438 L 1427.523438 346.429688 L 1670.226562 346.429688 Z M 1371.691406 234.0625 L 1369.402344 228.25 C 1365.351562 217.683594 1360.242188 207.46875 1354.429688 197.957031 C 1319.382812 181.753906 1281.867188 173.472656 1242.941406 173.472656 C 1231.671875 173.472656 1220.398438 174.179688 1209.304688 175.589844 L 1209.304688 199.363281 C 1220.398438 197.78125 1231.671875 197.074219 1242.941406 197.074219 C 1288.734375 197.25 1333.121094 209.933594 1371.691406 234.0625 Z M 1155.9375 269.640625 C 1153.117188 201.300781 1153.472656 140.363281 1153.824219 122.222656 C 1141.140625 124.863281 1127.40625 128.738281 1114.195312 134.199219 C 1115.78125 185.273438 1123.355469 232.300781 1131.277344 269.640625 C 1131.277344 269.640625 1155.9375 269.640625 1155.9375 269.640625 Z M 1644.863281 436.078125 C 1644.863281 434.316406 1644.6875 432.730469 1644.6875 430.972656 C 1644.6875 425.511719 1645.039062 420.050781 1645.566406 414.589844 L 1372.570312 414.589844 L 1362.707031 426.742188 C 1363.589844 429.738281 1364.46875 432.910156 1365.175781 436.078125 Z M 1687.835938 535.941406 L 1369.226562 535.941406 L 1369.226562 554.613281 L 1707.914062 559.191406 L 1716.898438 559.015625 C 1706.332031 552.496094 1696.46875 544.75 1687.835938 535.941406 Z M 1425.410156 334.804688 L 1434.566406 323.359375 C 1413.257812 315.609375 1396.171875 298.875 1388.070312 277.566406 L 1376.445312 246.917969 C 1376.445312 246.917969 1376.445312 246.917969 1376.269531 246.917969 C 1375.390625 246.917969 1374.507812 246.742188 1373.804688 246.214844 C 1335.058594 219.972656 1289.792969 206.058594 1242.765625 206.058594 C 1231.496094 206.058594 1220.222656 206.9375 1209.125 208.523438 L 1209.125 232.300781 C 1220.222656 230.539062 1231.496094 229.660156 1242.765625 229.660156 C 1318.324219 229.484375 1387.71875 269.816406 1425.410156 334.804688 Z M 1360.417969 742.714844 L 1334.882812 742.714844 C 1343.335938 752.929688 1349.851562 764.730469 1354.253906 777.585938 L 1360.417969 777.585938 Z M 1286.796875 135.609375 C 1262.84375 123.277344 1236.601562 116.585938 1209.480469 116.058594 L 1209.480469 134.199219 C 1220.574219 132.964844 1231.847656 132.261719 1243.121094 132.261719 C 1257.738281 132.4375 1272.355469 133.492188 1286.796875 135.609375 Z M 1664.941406 505.472656 L 1369.226562 505.472656 L 1369.226562 526.960938 L 1679.910156 526.960938 C 1674.277344 520.265625 1669.167969 513.222656 1664.941406 505.472656 Z M 1360.417969 629.640625 L 1345.449219 629.640625 L 1345.449219 675.082031 L 1360.417969 675.082031 Z M 1649.089844 466.546875 C 1647.328125 459.503906 1646.09375 452.28125 1645.390625 445.0625 L 1367.113281 445.0625 C 1368.34375 452.105469 1369.050781 459.328125 1369.226562 466.546875 Z M 1650.675781 475.355469 L 1369.226562 475.355469 L 1369.226562 496.84375 L 1660.007812 496.84375 C 1656.664062 489.972656 1653.667969 482.75 1651.378906 475.355469 C 1651.378906 475.355469 1651.027344 475.355469 1650.675781 475.355469 Z M 1665.644531 355.0625 L 1420.476562 355.0625 L 1404.097656 375.492188 L 1655.605469 375.492188 C 1658.425781 368.445312 1661.769531 361.578125 1665.644531 355.0625 Z M 1382.257812 402.613281 L 1379.617188 405.785156 L 1646.800781 405.785156 C 1648.03125 398.5625 1649.792969 391.34375 1652.082031 384.296875 L 1396.699219 384.296875 Z M 1403.394531 362.28125 L 1419.421875 342.203125 C 1383.667969 278.09375 1316.210938 238.289062 1242.941406 238.289062 C 1231.671875 238.289062 1220.398438 239.347656 1209.304688 241.105469 L 1209.304688 265.058594 C 1220.398438 262.945312 1231.671875 261.890625 1242.941406 261.890625 C 1311.28125 261.890625 1373.628906 300.988281 1403.394531 362.28125 Z M 1164.742188 269.640625 L 1200.496094 269.640625 L 1200.496094 116.234375 C 1192.921875 116.585938 1179.007812 117.644531 1162.628906 120.460938 C 1162.453125 135.960938 1161.925781 198.835938 1164.742188 269.640625 Z M 1292.785156 629.640625 L 1276.582031 629.640625 L 1276.582031 675.082031 L 1292.785156 675.082031 Z M 1227.445312 416 C 1229.910156 426.921875 1233.257812 437.664062 1237.308594 448.230469 L 1274.996094 542.457031 L 1274.996094 509.171875 C 1275.175781 472.183594 1257.03125 437.488281 1227.445312 416 Z M 1169.5 348.015625 L 1182.179688 348.015625 L 1196.269531 303.101562 L 1166.503906 303.101562 C 1167.207031 318.074219 1168.265625 333.222656 1169.5 348.015625 Z M 1360.417969 558.839844 L 1360.417969 469.71875 C 1360.417969 394.335938 1300.183594 332.867188 1225.332031 330.753906 L 1223.570312 347.3125 C 1290.320312 356.117188 1340.164062 412.828125 1340.164062 480.636719 L 1340.164062 561.832031 L 1360.417969 561.832031 Z M 1215.820312 296.761719 C 1224.800781 295 1233.960938 294.296875 1243.121094 294.296875 C 1275.175781 294.296875 1305.644531 304.511719 1331.183594 323.886719 C 1353.726562 340.96875 1370.988281 364.570312 1380.496094 390.8125 L 1397.40625 369.855469 C 1369.753906 309.445312 1309.519531 270.695312 1243.121094 270.695312 C 1232.550781 270.695312 1221.984375 271.753906 1211.59375 273.691406 C 1215.113281 276.683594 1217.40625 281.265625 1217.40625 286.371094 C 1217.40625 289.367188 1216.523438 292.183594 1215.113281 294.648438 Z M 1325.898438 330.753906 C 1301.945312 312.613281 1273.238281 302.925781 1243.121094 302.925781 C 1235.015625 302.925781 1226.738281 303.632812 1218.8125 305.039062 L 1224.625 321.773438 C 1286.269531 323.003906 1338.578125 362.105469 1359.539062 416.703125 L 1373.980469 398.738281 C 1365.527344 372.144531 1348.441406 348.015625 1325.898438 330.753906 Z M 1139.382812 303.101562 C 1141.496094 311.027344 1143.433594 318.074219 1145.191406 324.238281 L 1145.191406 308.035156 C 1145.191406 305.921875 1146.777344 303.984375 1148.890625 303.632812 C 1151.003906 303.28125 1153.117188 304.511719 1153.824219 306.449219 L 1158.753906 320.1875 C 1158.402344 314.550781 1158.050781 308.738281 1157.699219 303.101562 C 1157.699219 303.101562 1139.382812 303.101562 1139.382812 303.101562 Z M 1100.632812 303.101562 C 1106.972656 321.949219 1114.722656 337.976562 1124.058594 348.015625 L 1143.433594 348.015625 C 1140.789062 340.089844 1135.859375 324.414062 1130.222656 303.101562 Z M 1222.863281 356.117188 C 1222.335938 362.632812 1222.335938 369.152344 1222.511719 375.667969 C 1275 390.992188 1311.457031 439.25 1311.457031 494.199219 L 1311.457031 562.007812 L 1331.710938 562.007812 L 1331.710938 480.816406 C 1331.535156 417.410156 1285.039062 364.570312 1222.863281 356.117188 Z M 1283.980469 562.007812 L 1302.648438 562.007812 L 1302.648438 494.199219 C 1302.648438 444.179688 1270.242188 400.148438 1223.039062 385.003906 C 1223.570312 391.34375 1224.273438 397.683594 1225.15625 403.847656 C 1261.4375 426.214844 1283.980469 466.371094 1283.980469 508.996094 Z M 1122.296875 269.640625 C 1114.195312 231.949219 1106.796875 184.394531 1105.210938 133.140625 L 1097.285156 124.335938 L 1073.863281 159.207031 C 1074.742188 168.71875 1079.5 221.027344 1091.121094 269.640625 Z M 1748.074219 499.484375 C 1746.488281 498.425781 1745.078125 497.371094 1743.667969 496.3125 C 1742.085938 495.082031 1740.675781 493.847656 1739.265625 492.613281 C 1722.359375 477.46875 1711.613281 455.453125 1711.613281 430.972656 C 1711.613281 407.019531 1722.007812 384.648438 1739.265625 369.152344 C 1740.675781 367.917969 1742.085938 366.683594 1743.667969 365.453125 C 1745.078125 364.394531 1746.488281 363.339844 1748.074219 362.28125 C 1751.242188 360.167969 1754.765625 358.230469 1758.289062 356.46875 C 1754.941406 354.179688 1751.59375 351.890625 1748.074219 349.953125 C 1746.664062 349.070312 1745.078125 348.191406 1743.667969 347.488281 C 1742.261719 346.605469 1740.675781 345.902344 1739.265625 345.019531 C 1737.855469 344.316406 1736.449219 343.613281 1735.039062 342.90625 C 1705.625 362.808594 1688.191406 395.746094 1688.191406 430.972656 C 1688.191406 469.367188 1708.796875 503.183594 1739.441406 521.851562 C 1740.851562 522.734375 1742.4375 523.613281 1743.84375 524.316406 C 1745.253906 525.023438 1746.839844 525.902344 1748.25 526.605469 C 1762.164062 533.476562 1778.015625 537.175781 1794.570312 537.175781 C 1807.78125 537.175781 1820.460938 534.710938 1832.613281 530.128906 L 1832.613281 504.414062 C 1820.8125 510.578125 1807.78125 513.75 1794.570312 513.75 C 1777.132812 513.75 1761.28125 508.464844 1748.074219 499.484375 Z M 1748.074219 536.292969 C 1746.664062 535.589844 1745.078125 534.886719 1743.667969 534.179688 C 1742.261719 533.476562 1740.675781 532.773438 1739.265625 531.890625 C 1703.511719 512.339844 1679.207031 474.296875 1679.207031 430.792969 C 1679.207031 394.335938 1696.46875 360.167969 1725.703125 338.503906 C 1716.546875 334.628906 1706.859375 331.636719 1696.996094 329.523438 C 1669.519531 355.941406 1653.84375 392.75 1653.84375 430.972656 C 1653.84375 485.394531 1685.722656 535.238281 1734.863281 558.484375 C 1735.039062 558.664062 1735.214844 558.664062 1735.566406 558.839844 L 1741.910156 558.839844 C 1742.613281 558.839844 1743.140625 559.015625 1743.84375 559.191406 C 1744.375 559.367188 1744.726562 559.71875 1745.078125 560.070312 C 1745.605469 560.601562 1745.960938 561.304688 1746.136719 562.007812 L 1832.613281 562.007812 L 1832.613281 539.640625 C 1820.460938 543.867188 1807.601562 546.15625 1794.570312 546.15625 C 1777.839844 546.15625 1762.164062 542.636719 1748.074219 536.292969 Z M 1749.304688 408.074219 C 1750.011719 406.488281 1750.890625 405.082031 1751.769531 403.671875 C 1752.828125 402.085938 1753.886719 400.675781 1754.941406 399.269531 C 1761.988281 390.636719 1771.671875 384.472656 1782.769531 381.832031 C 1784.003906 381.65625 1785.058594 381.304688 1786.292969 381.128906 C 1785.058594 379.894531 1784.003906 378.660156 1782.769531 377.429688 C 1781.183594 375.84375 1779.773438 374.433594 1778.191406 372.847656 C 1774.316406 369.152344 1770.265625 365.628906 1766.039062 362.457031 C 1765.859375 362.632812 1765.507812 362.808594 1765.332031 362.808594 C 1759.167969 365.453125 1753.53125 368.796875 1748.425781 372.847656 C 1748.25 373.027344 1748.074219 373.203125 1747.894531 373.203125 C 1746.3125 374.433594 1744.902344 375.667969 1743.492188 377.078125 C 1741.90625 378.484375 1740.5 380.070312 1739.089844 381.65625 C 1727.113281 394.863281 1720.246094 412.300781 1720.246094 430.972656 C 1720.246094 449.816406 1727.464844 467.078125 1739.089844 480.285156 C 1740.5 481.871094 1741.90625 483.28125 1743.492188 484.867188 C 1744.902344 486.273438 1746.3125 487.507812 1747.894531 488.742188 C 1760.578125 498.957031 1776.605469 505.121094 1794.21875 505.121094 C 1807.601562 505.121094 1820.8125 501.421875 1832.261719 494.550781 C 1832.085938 485.21875 1831.027344 476.058594 1829.441406 467.253906 C 1820.109375 476.410156 1807.601562 481.695312 1794.21875 481.695312 C 1773.433594 481.695312 1755.644531 469.191406 1747.894531 451.226562 C 1745.253906 445.0625 1743.84375 438.367188 1743.84375 431.324219 C 1743.84375 424.277344 1745.253906 417.585938 1747.894531 411.421875 C 1748.425781 410.011719 1748.953125 409.132812 1749.304688 408.074219 Z M 1810.246094 413.886719 C 1809.011719 411.773438 1807.78125 409.484375 1806.371094 407.371094 C 1802.496094 401.03125 1798.09375 395.042969 1793.511719 389.230469 C 1783.472656 389.40625 1774.316406 393.105469 1767.269531 399.09375 C 1765.683594 400.5 1764.277344 401.910156 1762.867188 403.496094 C 1761.632812 404.902344 1760.578125 406.3125 1759.519531 407.898438 C 1755.117188 414.414062 1752.652344 422.339844 1752.652344 430.792969 C 1752.652344 453.691406 1771.320312 472.359375 1794.21875 472.359375 C 1807.25 472.359375 1819.226562 466.371094 1827.152344 456.15625 C 1823.984375 443.828125 1819.578125 431.851562 1813.945312 420.753906 C 1812.886719 418.640625 1811.652344 416.175781 1810.246094 413.886719 Z M 1359.890625 683.886719 L 1276.757812 683.886719 L 1276.757812 704.140625 L 1359.890625 704.140625 Z M 1359.890625 713.652344 L 1359.890625 712.949219 L 1297.894531 712.949219 C 1298.421875 713.125 1298.953125 713.476562 1299.480469 713.652344 C 1309.695312 718.9375 1319.03125 725.804688 1327.132812 733.90625 L 1360.066406 733.90625 Z M 1359.890625 570.816406 L 1276.582031 570.816406 L 1276.582031 591.070312 L 1359.714844 591.070312 L 1359.714844 570.816406 Z M 1359.890625 600.582031 L 1359.890625 599.875 L 1276.757812 599.875 L 1276.757812 620.835938 L 1359.890625 620.835938 Z M 1336.640625 675.082031 L 1336.640625 630.34375 L 1323.785156 630.34375 L 1323.785156 675.082031 Z M 1301.59375 675.082031 L 1314.980469 675.082031 L 1314.980469 630.34375 L 1301.59375 630.34375 Z M 1790.695312 683.886719 L 1748.074219 683.886719 L 1748.074219 704.140625 L 1750.890625 704.140625 C 1759.519531 702.027344 1768.328125 700.972656 1777.484375 700.972656 C 1786.644531 700.972656 1795.625 702.027344 1804.082031 704.140625 L 1831.027344 704.140625 L 1831.027344 683.886719 Z M 1829.796875 713.652344 C 1830.324219 713.828125 1830.675781 714.179688 1831.203125 714.359375 L 1831.203125 712.949219 L 1828.210938 712.949219 C 1828.738281 713.125 1829.265625 713.300781 1829.796875 713.652344 Z M 1831.203125 570.816406 L 1748.074219 570.816406 L 1748.074219 591.070312 L 1831.203125 591.070312 Z M 1748.074219 600.582031 L 1748.074219 620.835938 L 1831.203125 620.835938 L 1831.203125 599.875 L 1748.074219 599.875 Z M 1807.957031 675.082031 L 1807.957031 630.34375 L 1795.097656 630.34375 L 1795.097656 675.082031 Z M 1772.90625 675.082031 L 1786.292969 675.082031 L 1786.292969 630.34375 L 1772.90625 630.34375 Z M 1888.445312 790.621094 C 1890.03125 798.195312 1890.910156 806.121094 1890.910156 814.222656 C 1890.910156 822.324219 1890.03125 830.25 1888.445312 837.820312 L 1937.585938 837.820312 L 1937.585938 790.621094 Z M 1666.703125 790.621094 C 1665.117188 798.195312 1664.238281 806.121094 1664.238281 814.222656 C 1664.238281 822.324219 1665.117188 830.25 1666.703125 837.820312 L 1357.953125 837.820312 C 1359.539062 830.25 1360.417969 822.324219 1360.417969 814.222656 C 1360.417969 806.121094 1359.539062 798.195312 1357.953125 790.621094 Z M 1436.152344 813.691406 C 1436.152344 807.351562 1431.046875 802.246094 1424.707031 802.246094 C 1418.363281 802.246094 1413.257812 807.351562 1413.257812 813.691406 C 1413.257812 820.035156 1418.363281 825.140625 1424.707031 825.140625 C 1431.046875 825.140625 1436.152344 820.035156 1436.152344 813.691406 Z M 1522.457031 813.691406 C 1522.457031 807.351562 1517.347656 802.246094 1511.007812 802.246094 C 1504.667969 802.246094 1499.558594 807.351562 1499.558594 813.691406 C 1499.558594 820.035156 1504.667969 825.140625 1511.007812 825.140625 C 1517.347656 825.140625 1522.457031 820.035156 1522.457031 813.691406 Z M 1606.292969 813.691406 C 1606.292969 807.351562 1601.183594 802.246094 1594.84375 802.246094 C 1588.503906 802.246094 1583.394531 807.351562 1583.394531 813.691406 C 1583.394531 820.035156 1588.503906 825.140625 1594.84375 825.140625 C 1601.183594 825.140625 1606.292969 820.035156 1606.292969 813.691406 Z M 1809.714844 786.394531 L 1809.539062 786.21875 C 1808.132812 784.632812 1806.722656 783.222656 1805.3125 781.988281 L 1805.136719 781.8125 C 1803.375 780.230469 1801.261719 778.820312 1799.148438 777.585938 C 1792.808594 773.886719 1785.410156 771.597656 1777.484375 771.597656 C 1769.558594 771.597656 1762.164062 773.710938 1755.820312 777.585938 C 1753.707031 778.820312 1751.769531 780.230469 1749.832031 781.8125 L 1749.65625 781.988281 C 1748.074219 783.222656 1746.664062 784.632812 1745.429688 786.21875 L 1745.253906 786.394531 C 1744.023438 787.800781 1742.964844 789.210938 1742.085938 790.621094 C 1737.503906 797.3125 1734.863281 805.589844 1734.863281 814.222656 C 1734.863281 823.027344 1737.503906 831.128906 1742.085938 837.820312 C 1743.140625 839.40625 1744.199219 840.816406 1745.429688 842.226562 C 1746.839844 843.808594 1748.25 845.21875 1749.832031 846.628906 C 1757.230469 852.96875 1766.917969 856.84375 1777.484375 856.84375 C 1788.054688 856.84375 1797.5625 852.96875 1805.136719 846.628906 C 1806.722656 845.21875 1808.308594 843.808594 1809.539062 842.226562 C 1810.773438 840.816406 1811.832031 839.40625 1812.886719 837.820312 C 1817.464844 831.128906 1820.109375 822.851562 1820.109375 814.222656 C 1820.109375 805.414062 1817.464844 797.3125 1812.886719 790.621094 C 1812.007812 789.035156 1810.949219 787.625 1809.714844 786.394531 Z M 1279.226562 786.394531 L 1279.050781 786.21875 C 1277.640625 784.632812 1276.230469 783.222656 1274.820312 781.988281 L 1274.644531 781.8125 C 1272.882812 780.230469 1270.769531 778.820312 1268.65625 777.585938 C 1262.316406 773.886719 1254.917969 771.597656 1246.992188 771.597656 C 1240.125 771.597656 1233.609375 773.183594 1227.796875 776.179688 C 1226.210938 776.882812 1224.800781 777.761719 1223.394531 778.820312 C 1221.984375 779.699219 1220.574219 780.757812 1219.34375 781.8125 C 1219.167969 781.988281 1219.167969 781.988281 1218.988281 782.167969 C 1217.582031 783.398438 1216.171875 784.808594 1214.9375 786.21875 C 1213.707031 787.625 1212.648438 789.035156 1211.59375 790.621094 C 1207.011719 797.3125 1204.371094 805.589844 1204.371094 814.222656 C 1204.371094 823.027344 1207.011719 831.128906 1211.59375 837.820312 C 1212.648438 839.40625 1213.707031 840.816406 1214.9375 842.226562 C 1216.347656 843.808594 1217.757812 845.21875 1219.34375 846.628906 C 1226.738281 852.96875 1236.425781 856.84375 1246.992188 856.84375 C 1257.5625 856.84375 1267.074219 852.96875 1274.644531 846.628906 C 1276.230469 845.21875 1277.816406 843.808594 1279.050781 842.226562 C 1280.28125 840.816406 1281.339844 839.40625 1282.394531 837.820312 C 1286.972656 831.128906 1289.617188 822.851562 1289.617188 814.222656 C 1289.617188 805.414062 1286.972656 797.3125 1282.394531 790.621094 C 1281.515625 789.035156 1280.457031 787.625 1279.226562 786.394531 Z M 1075.445312 795.550781 C 1065.40625 795.550781 1057.304688 803.652344 1057.304688 813.691406 C 1057.304688 823.730469 1065.40625 831.832031 1075.445312 831.832031 C 1085.488281 831.832031 1093.589844 823.730469 1093.589844 813.691406 C 1093.589844 803.652344 1085.488281 795.550781 1075.445312 795.550781 Z M 1075.445312 795.550781 " fill-opacity="1" fill-rule="nonzero"/><path fill="#545454" d="M 1888.445312 790.621094 C 1888.09375 789.210938 1887.742188 787.625 1887.386719 786.21875 C 1887.035156 784.808594 1886.507812 783.222656 1886.15625 781.8125 C 1878.582031 756.628906 1862.554688 734.964844 1841.242188 720.523438 C 1840.890625 720.347656 1840.539062 719.992188 1840.011719 719.816406 C 1838.953125 719.113281 1837.898438 718.410156 1836.839844 717.703125 C 1836.488281 717.527344 1836.136719 717.175781 1835.605469 717 C 1834.550781 716.296875 1833.492188 715.765625 1832.4375 715.0625 C 1832.085938 714.886719 1831.734375 714.710938 1831.203125 714.359375 C 1830.675781 714.179688 1830.324219 713.828125 1829.796875 713.652344 C 1829.265625 713.300781 1828.738281 713.125 1828.210938 712.949219 C 1825.566406 711.714844 1822.925781 710.484375 1820.285156 709.25 C 1819.578125 708.898438 1818.875 708.722656 1818.347656 708.546875 C 1814.824219 707.136719 1811.125 705.902344 1807.25 704.847656 C 1806.195312 704.496094 1805.136719 704.320312 1804.082031 704.140625 C 1795.449219 702.027344 1786.644531 700.972656 1777.484375 700.972656 C 1768.328125 700.972656 1759.34375 702.027344 1750.890625 704.140625 C 1749.832031 704.320312 1748.953125 704.671875 1748.074219 704.847656 C 1747.367188 705.023438 1746.839844 705.199219 1746.136719 705.375 C 1745.253906 705.550781 1744.375 705.902344 1743.667969 706.078125 C 1742.964844 706.257812 1742.4375 706.433594 1741.730469 706.785156 C 1740.851562 707.136719 1740.148438 707.3125 1739.265625 707.664062 C 1739.265625 707.664062 1739.265625 707.664062 1739.089844 707.664062 C 1738.386719 707.839844 1737.855469 708.191406 1737.152344 708.371094 C 1704.394531 720.875 1678.855469 747.996094 1668.816406 781.8125 C 1668.464844 783.222656 1667.933594 784.808594 1667.582031 786.21875 C 1667.230469 787.625 1666.878906 789.210938 1666.527344 790.621094 C 1664.941406 798.195312 1664.058594 806.121094 1664.058594 814.222656 C 1664.058594 822.324219 1664.941406 830.25 1666.527344 837.820312 C 1666.878906 839.230469 1667.230469 840.816406 1667.582031 842.226562 C 1667.933594 843.632812 1668.464844 845.21875 1668.816406 846.628906 C 1682.730469 893.476562 1726.058594 927.46875 1777.484375 927.46875 C 1828.914062 927.46875 1872.066406 893.300781 1886.15625 846.628906 C 1886.507812 845.21875 1887.035156 843.632812 1887.386719 842.226562 C 1887.742188 840.816406 1888.09375 839.230469 1888.445312 837.820312 C 1890.03125 830.25 1890.910156 822.324219 1890.910156 814.222656 C 1890.910156 806.121094 1890.03125 798.195312 1888.445312 790.621094 Z M 1820.636719 842.226562 C 1819.578125 843.808594 1818.523438 845.21875 1817.464844 846.628906 C 1807.957031 858.253906 1793.6875 865.648438 1777.660156 865.648438 C 1761.632812 865.648438 1747.191406 858.253906 1737.855469 846.628906 C 1736.625 845.21875 1735.566406 843.808594 1734.6875 842.226562 C 1733.804688 840.816406 1732.925781 839.40625 1732.046875 837.820312 C 1728.347656 830.777344 1726.234375 822.675781 1726.234375 814.222656 C 1726.234375 805.765625 1728.347656 797.664062 1732.046875 790.621094 C 1732.75 789.210938 1733.628906 787.800781 1734.511719 786.394531 C 1734.511719 786.394531 1734.511719 786.21875 1734.6875 786.21875 C 1735.566406 784.808594 1736.625 783.398438 1737.679688 781.988281 L 1737.855469 781.8125 C 1739.089844 780.40625 1740.324219 778.996094 1741.730469 777.585938 C 1751.066406 768.429688 1763.746094 762.792969 1777.660156 762.792969 C 1791.574219 762.792969 1804.433594 768.429688 1813.589844 777.585938 C 1815 778.996094 1816.234375 780.40625 1817.464844 781.8125 L 1817.640625 781.988281 C 1818.699219 783.398438 1819.757812 784.808594 1820.636719 786.21875 C 1820.636719 786.21875 1820.636719 786.394531 1820.8125 786.394531 C 1821.695312 787.800781 1822.574219 789.210938 1823.277344 790.621094 C 1826.976562 797.664062 1829.089844 805.765625 1829.089844 814.222656 C 1829.089844 822.675781 1826.976562 830.777344 1823.277344 837.820312 C 1822.398438 839.40625 1821.515625 840.816406 1820.636719 842.226562 Z M 1356.898438 786.394531 L 1356.898438 786.21875 C 1356.542969 784.808594 1356.191406 783.398438 1355.664062 781.988281 L 1355.664062 781.8125 C 1355.3125 780.40625 1354.78125 778.996094 1354.253906 777.585938 C 1349.851562 764.730469 1343.335938 752.929688 1334.882812 742.714844 C 1333.648438 741.128906 1332.414062 739.71875 1331.183594 738.3125 C 1329.773438 736.726562 1328.363281 735.316406 1326.957031 733.90625 C 1318.851562 725.804688 1309.519531 719.113281 1299.304688 713.652344 C 1298.773438 713.300781 1298.246094 713.125 1297.71875 712.949219 C 1295.078125 711.714844 1292.433594 710.484375 1289.792969 709.25 C 1289.089844 708.898438 1288.382812 708.722656 1287.855469 708.546875 C 1284.332031 707.136719 1280.632812 705.902344 1276.757812 704.847656 L 1276.40625 704.847656 C 1275.527344 704.671875 1274.644531 704.320312 1273.589844 704.140625 C 1273.0625 703.964844 1272.53125 703.964844 1272.179688 703.789062 L 1272.003906 703.789062 C 1270.59375 703.4375 1269.1875 703.261719 1267.777344 702.910156 L 1267.601562 702.910156 C 1260.90625 701.675781 1254.039062 700.972656 1246.992188 700.972656 C 1186.054688 700.972656 1136.386719 749.054688 1133.746094 809.289062 C 1133.746094 810.699219 1133.570312 812.285156 1133.570312 813.691406 C 1133.570312 813.867188 1133.570312 814.046875 1133.570312 814.222656 C 1133.570312 815.453125 1133.570312 816.863281 1133.746094 818.097656 C 1135.859375 878.859375 1185.703125 927.644531 1246.992188 927.644531 C 1298.246094 927.644531 1341.574219 893.476562 1355.664062 846.804688 C 1356.015625 845.394531 1356.542969 843.808594 1356.898438 842.402344 C 1357.25 840.992188 1357.601562 839.40625 1357.953125 838 C 1359.539062 830.425781 1360.417969 822.5 1360.417969 814.398438 C 1360.417969 806.296875 1359.539062 798.371094 1357.953125 790.796875 C 1357.601562 789.210938 1357.25 787.800781 1356.898438 786.394531 Z M 1290.144531 842.226562 C 1289.089844 843.808594 1288.03125 845.21875 1286.976562 846.628906 C 1277.464844 858.253906 1263.199219 865.648438 1247.171875 865.648438 C 1231.144531 865.648438 1216.699219 858.253906 1207.367188 846.628906 C 1206.132812 845.21875 1205.074219 843.808594 1204.195312 842.226562 C 1203.316406 840.816406 1202.433594 839.40625 1201.554688 837.820312 C 1197.855469 830.777344 1195.742188 822.675781 1195.742188 814.222656 C 1195.742188 805.765625 1197.855469 797.664062 1201.554688 790.621094 C 1202.257812 789.035156 1203.136719 787.625 1204.195312 786.21875 C 1205.253906 784.632812 1206.308594 783.222656 1207.367188 781.8125 C 1210.710938 777.585938 1214.761719 774.0625 1219.34375 771.070312 C 1220.75 770.191406 1222.160156 769.308594 1223.746094 768.429688 C 1225.15625 767.722656 1226.5625 767.019531 1228.148438 766.492188 C 1234.136719 764.023438 1240.476562 762.792969 1247.347656 762.792969 C 1261.4375 762.792969 1274.117188 768.429688 1283.277344 777.585938 C 1284.683594 778.996094 1285.917969 780.40625 1287.152344 781.8125 L 1287.328125 781.988281 C 1288.382812 783.398438 1289.441406 784.808594 1290.320312 786.21875 C 1290.320312 786.21875 1290.320312 786.394531 1290.496094 786.394531 C 1291.378906 787.800781 1292.257812 789.210938 1292.964844 790.621094 C 1296.660156 797.664062 1298.773438 805.765625 1298.773438 814.222656 C 1298.773438 822.675781 1296.660156 830.777344 1292.964844 837.820312 C 1291.90625 839.40625 1291.027344 840.816406 1290.144531 842.226562 Z M 1137.089844 294.296875 L 1087.953125 294.296875 C 1083.550781 294.296875 1080.027344 290.773438 1080.027344 286.371094 C 1080.027344 283.199219 1081.789062 280.558594 1084.429688 279.328125 C 1085.488281 278.796875 1086.71875 278.445312 1087.953125 278.445312 L 1200.496094 278.445312 C 1202.082031 278.445312 1203.667969 278.972656 1204.898438 279.855469 C 1207.011719 281.265625 1208.421875 283.730469 1208.421875 286.371094 C 1208.421875 286.722656 1208.421875 287.253906 1208.246094 287.605469 C 1208.246094 287.78125 1208.070312 288.132812 1208.070312 288.308594 C 1207.542969 290.597656 1205.957031 292.535156 1203.84375 293.417969 C 1202.785156 293.945312 1201.730469 294.121094 1200.496094 294.121094 L 1157.167969 294.121094 Z M 1137.089844 294.296875 " fill-opacity="1" fill-rule="nonzero"/><g clip-path="url(#d6e48a9148)"><path fill="#737373" d="M 1937.054688 570.816406 C 1939.523438 570.816406 1941.460938 568.878906 1941.460938 566.410156 L 1941.460938 495.433594 C 1941.460938 490.324219 1941.28125 485.394531 1940.753906 480.460938 C 1941.28125 479.757812 1941.460938 478.878906 1941.460938 477.996094 C 1941.460938 476.765625 1940.929688 475.53125 1940.050781 474.828125 C 1929.835938 398.738281 1864.667969 339.914062 1785.761719 339.914062 L 1747.898438 339.914062 C 1732.046875 331.109375 1714.785156 324.414062 1696.46875 320.714844 C 1696.292969 320.714844 1696.117188 320.714844 1695.9375 320.539062 C 1684.140625 318.074219 1671.808594 316.839844 1659.304688 316.839844 L 1442.671875 316.839844 C 1421.535156 310.851562 1404.273438 295 1396.347656 274.570312 L 1377.679688 225.253906 C 1373.277344 213.632812 1367.816406 202.710938 1361.300781 192.496094 C 1361.300781 192.496094 1361.300781 192.320312 1361.125 192.320312 C 1348.441406 172.242188 1331.886719 154.804688 1312.160156 140.890625 C 1311.984375 140.714844 1311.984375 140.714844 1311.808594 140.539062 C 1311.457031 140.1875 1310.929688 139.835938 1310.574219 139.660156 C 1279.753906 118.347656 1243.824219 107.25 1206.660156 107.25 C 1206.484375 107.25 1205.957031 107.25 1205.253906 107.25 L 1204.898438 107.25 C 1195.390625 107.425781 1151.359375 109.1875 1111.023438 126.097656 L 1100.28125 114.121094 C 1099.398438 113.0625 1097.992188 112.535156 1096.757812 112.710938 C 1095.347656 112.886719 1094.117188 113.589844 1093.410156 114.648438 L 1065.761719 155.6875 C 1065.230469 156.566406 1064.878906 157.445312 1065.054688 158.503906 C 1065.40625 162.378906 1069.8125 218.035156 1082.316406 270.695312 C 1075.976562 272.984375 1071.21875 279.148438 1071.21875 286.371094 C 1071.21875 295.53125 1078.792969 303.101562 1087.953125 303.101562 L 1091.296875 303.101562 C 1098.519531 325.117188 1107.679688 344.140625 1118.949219 355.589844 C 1119.832031 356.46875 1120.886719 356.820312 1122.121094 356.820312 L 1149.597656 356.820312 C 1149.949219 356.820312 1150.125 356.820312 1150.476562 356.820312 C 1150.652344 356.820312 1150.652344 356.820312 1150.828125 356.820312 C 1151.003906 356.820312 1151.003906 356.820312 1151.179688 356.644531 C 1151.359375 356.644531 1151.535156 356.46875 1151.710938 356.46875 C 1151.886719 356.46875 1151.886719 356.292969 1152.0625 356.292969 C 1152.238281 356.292969 1152.238281 356.117188 1152.414062 355.941406 C 1152.589844 355.941406 1152.589844 355.765625 1152.765625 355.765625 C 1152.941406 355.589844 1152.941406 355.589844 1153.117188 355.414062 C 1153.296875 355.238281 1153.296875 355.238281 1153.296875 355.058594 C 1153.296875 354.882812 1153.472656 354.882812 1153.472656 354.707031 C 1153.472656 354.53125 1153.648438 354.53125 1153.648438 354.355469 C 1153.648438 354.179688 1153.824219 354.003906 1153.824219 354.003906 C 1153.824219 353.828125 1154 353.828125 1154 353.652344 C 1154 353.476562 1154 353.476562 1154 353.300781 C 1154 353.125 1154 352.945312 1154 352.769531 C 1154 352.769531 1154 352.769531 1154 352.59375 L 1154 333.75 L 1161.21875 353.828125 C 1161.21875 354.003906 1161.398438 354.003906 1161.398438 354.179688 C 1161.398438 354.179688 1161.398438 354.355469 1161.574219 354.355469 C 1161.75 354.53125 1161.75 354.707031 1161.925781 354.882812 C 1161.925781 354.882812 1161.925781 354.882812 1161.925781 355.0625 C 1162.101562 355.238281 1162.277344 355.414062 1162.453125 355.589844 L 1162.628906 355.765625 C 1162.804688 355.941406 1162.980469 355.941406 1162.980469 356.117188 L 1163.15625 356.292969 C 1163.335938 356.292969 1163.511719 356.46875 1163.511719 356.46875 C 1163.511719 356.46875 1163.6875 356.46875 1163.863281 356.644531 C 1164.039062 356.644531 1164.214844 356.820312 1164.390625 356.820312 L 1164.566406 356.820312 C 1164.742188 356.820312 1165.09375 356.820312 1165.273438 356.820312 L 1185.351562 356.820312 C 1187.289062 356.820312 1189.046875 355.589844 1189.578125 353.652344 L 1205.605469 302.222656 C 1206.308594 302.046875 1207.191406 301.695312 1207.894531 301.34375 L 1216.699219 326.878906 L 1214.410156 348.191406 C 1213.355469 358.40625 1213 368.621094 1213.355469 378.835938 C 1213.355469 379.191406 1213.355469 379.367188 1213.355469 379.71875 C 1213.707031 389.054688 1214.761719 398.386719 1216.347656 407.546875 L 1216.347656 407.722656 C 1218.988281 422.691406 1223.039062 437.3125 1228.675781 451.578125 L 1267.25 547.566406 L 1267.25 702.910156 L 1267.425781 702.910156 C 1268.832031 703.085938 1270.242188 703.4375 1271.652344 703.789062 L 1271.828125 703.789062 C 1272.355469 703.964844 1272.882812 703.964844 1273.238281 704.140625 C 1274.117188 704.320312 1274.996094 704.671875 1276.054688 704.847656 L 1276.40625 704.847656 C 1280.105469 705.902344 1283.804688 707.136719 1287.503906 708.546875 C 1288.207031 708.722656 1288.910156 709.074219 1289.441406 709.25 C 1292.082031 710.308594 1294.722656 711.539062 1297.367188 712.949219 L 1359.363281 712.949219 L 1359.363281 733.90625 L 1326.425781 733.90625 C 1327.835938 735.316406 1329.246094 736.726562 1330.652344 738.3125 C 1331.886719 739.71875 1333.121094 741.128906 1334.351562 742.714844 L 1359.890625 742.714844 L 1359.890625 777.585938 L 1353.726562 777.585938 C 1354.253906 778.996094 1354.605469 780.40625 1355.136719 781.8125 L 1355.136719 781.988281 C 1355.488281 783.398438 1356.015625 784.808594 1356.367188 786.21875 L 1356.367188 786.394531 C 1356.71875 787.800781 1357.074219 789.210938 1357.425781 790.621094 L 1666.703125 790.621094 C 1667.054688 789.210938 1667.40625 787.625 1667.757812 786.21875 C 1668.113281 784.808594 1668.640625 783.222656 1668.992188 781.8125 L 1369.226562 781.8125 L 1369.226562 563.417969 L 1707.914062 567.996094 L 1737.152344 567.644531 L 1737.152344 708.371094 C 1737.855469 708.191406 1738.386719 707.839844 1739.089844 707.664062 C 1739.089844 707.664062 1739.089844 707.664062 1739.265625 707.664062 C 1740.148438 707.3125 1740.851562 707.136719 1741.730469 706.785156 C 1742.4375 706.609375 1742.964844 706.433594 1743.667969 706.078125 C 1744.550781 705.902344 1745.429688 705.550781 1746.136719 705.375 C 1746.839844 705.199219 1747.367188 705.023438 1748.074219 704.847656 C 1748.953125 704.671875 1750.011719 704.320312 1750.890625 704.140625 L 1748.074219 704.140625 L 1748.074219 683.886719 L 1831.203125 683.886719 L 1831.203125 704.140625 L 1804.257812 704.140625 C 1805.3125 704.320312 1806.371094 704.671875 1807.425781 704.847656 C 1811.125 705.902344 1814.824219 707.136719 1818.523438 708.546875 C 1819.226562 708.722656 1819.933594 709.074219 1820.460938 709.25 C 1823.101562 710.308594 1825.746094 711.539062 1828.386719 712.949219 L 1831.378906 712.949219 L 1831.378906 714.359375 C 1831.734375 714.535156 1832.085938 714.710938 1832.613281 715.0625 C 1833.671875 715.589844 1834.726562 716.296875 1835.785156 717 C 1836.136719 717.175781 1836.488281 717.527344 1837.015625 717.703125 C 1838.074219 718.410156 1839.128906 719.113281 1840.1875 719.816406 C 1840.539062 719.992188 1840.890625 720.347656 1841.417969 720.523438 L 1841.417969 570.816406 Z M 1708.09375 559.015625 L 1369.226562 554.613281 L 1369.226562 535.941406 L 1687.835938 535.941406 C 1687.835938 535.941406 1687.835938 535.941406 1688.011719 535.941406 C 1696.644531 544.75 1706.507812 552.496094 1717.25 559.015625 Z M 1169.5 348.015625 C 1168.265625 333.222656 1167.207031 318.074219 1166.503906 303.101562 L 1196.445312 303.101562 L 1182.355469 348.015625 Z M 1124.058594 348.015625 C 1114.722656 337.976562 1106.972656 321.949219 1100.632812 303.101562 L 1130.222656 303.101562 C 1135.683594 324.414062 1140.789062 340.089844 1143.433594 348.015625 Z M 1080.027344 286.371094 C 1080.027344 283.199219 1081.789062 280.558594 1084.429688 279.328125 C 1085.488281 278.796875 1086.71875 278.445312 1087.953125 278.445312 L 1200.496094 278.445312 C 1202.082031 278.445312 1203.667969 278.972656 1204.898438 279.855469 C 1207.011719 281.265625 1208.421875 283.730469 1208.421875 286.371094 C 1208.421875 286.722656 1208.421875 287.253906 1208.246094 287.605469 C 1208.246094 287.78125 1208.070312 288.132812 1208.070312 288.308594 C 1207.542969 290.597656 1205.957031 292.535156 1203.84375 293.417969 C 1202.785156 293.945312 1201.730469 294.121094 1200.496094 294.121094 L 1087.953125 294.121094 C 1083.550781 294.296875 1080.027344 290.773438 1080.027344 286.371094 Z M 1153.824219 122.222656 C 1153.648438 140.363281 1153.296875 201.300781 1155.9375 269.640625 L 1131.277344 269.640625 C 1123.175781 232.476562 1115.605469 185.273438 1114.195312 134.199219 C 1127.40625 128.738281 1141.140625 124.863281 1153.824219 122.222656 Z M 1200.671875 116.234375 L 1200.671875 269.640625 L 1164.742188 269.640625 C 1161.925781 198.835938 1162.453125 135.960938 1162.628906 120.460938 C 1179.183594 117.644531 1193.097656 116.585938 1200.671875 116.234375 Z M 1369.578125 228.25 L 1371.867188 234.0625 C 1333.296875 209.933594 1288.910156 197.074219 1243.121094 197.074219 C 1231.847656 197.074219 1220.574219 197.957031 1209.480469 199.363281 L 1209.480469 175.765625 C 1220.574219 174.355469 1231.847656 173.652344 1243.121094 173.652344 C 1282.042969 173.652344 1319.558594 181.929688 1354.605469 198.132812 C 1360.417969 207.644531 1365.527344 217.683594 1369.578125 228.25 Z M 1388.246094 277.566406 C 1396.347656 298.875 1413.433594 315.609375 1434.746094 323.359375 L 1425.585938 334.804688 C 1387.71875 269.640625 1318.5 229.484375 1243.121094 229.484375 C 1231.847656 229.484375 1220.574219 230.363281 1209.480469 232.125 L 1209.480469 208.347656 C 1220.574219 206.761719 1231.847656 205.882812 1243.121094 205.882812 C 1289.96875 205.882812 1335.234375 219.796875 1374.15625 246.039062 C 1374.863281 246.566406 1375.742188 246.742188 1376.621094 246.742188 C 1376.621094 246.742188 1376.621094 246.742188 1376.800781 246.742188 Z M 1686.253906 327.585938 C 1680.617188 333.398438 1675.507812 339.738281 1671.105469 346.253906 C 1670.753906 346.253906 1670.578125 346.078125 1670.226562 346.078125 L 1427.523438 346.078125 L 1444.253906 325.296875 L 1659.65625 325.296875 C 1668.640625 325.648438 1677.621094 326.351562 1686.253906 327.585938 Z M 1360.417969 469.894531 L 1360.417969 562.007812 L 1340.164062 562.007812 L 1340.164062 480.816406 C 1340.164062 412.828125 1290.320312 356.292969 1223.570312 347.488281 L 1225.332031 330.929688 C 1300.183594 332.867188 1360.417969 394.511719 1360.417969 469.894531 Z M 1372.746094 414.589844 L 1645.742188 414.589844 C 1645.214844 420.050781 1644.863281 425.511719 1644.863281 430.972656 C 1644.863281 432.730469 1644.863281 434.492188 1645.039062 436.078125 L 1365.351562 436.078125 C 1364.644531 432.910156 1363.765625 429.738281 1362.886719 426.742188 Z M 1369.226562 466.546875 C 1369.050781 459.152344 1368.34375 452.105469 1367.113281 445.0625 L 1645.390625 445.0625 C 1646.09375 452.28125 1647.328125 459.503906 1649.089844 466.546875 Z M 1276.582031 620.835938 L 1276.582031 599.875 L 1359.714844 599.875 L 1359.714844 620.835938 Z M 1306.875 570.816406 L 1359.890625 570.816406 L 1359.890625 591.070312 L 1276.757812 591.070312 L 1276.757812 570.816406 Z M 1301.59375 630.34375 L 1314.980469 630.34375 L 1314.980469 675.082031 L 1301.59375 675.082031 Z M 1331.535156 480.816406 L 1331.535156 562.007812 L 1311.28125 562.007812 L 1311.28125 494.199219 C 1311.28125 439.25 1274.820312 390.992188 1222.335938 375.667969 C 1222.160156 369.152344 1222.335938 362.632812 1222.6875 356.117188 C 1285.039062 364.570312 1331.535156 417.410156 1331.535156 480.816406 Z M 1302.472656 494.199219 L 1302.472656 562.007812 L 1283.804688 562.007812 L 1283.804688 509.171875 C 1283.804688 466.371094 1261.261719 426.390625 1224.976562 404.023438 C 1223.921875 397.683594 1223.21875 391.519531 1222.863281 385.179688 C 1270.066406 400.148438 1302.472656 444.179688 1302.472656 494.199219 Z M 1276.40625 629.640625 L 1292.609375 629.640625 L 1292.609375 675.082031 L 1276.40625 675.082031 Z M 1323.785156 675.082031 L 1323.785156 630.34375 L 1336.640625 630.34375 L 1336.640625 675.082031 Z M 1345.449219 629.640625 L 1360.417969 629.640625 L 1360.417969 675.082031 L 1345.449219 675.082031 Z M 1369.226562 505.472656 L 1664.941406 505.472656 C 1669.34375 513.046875 1674.277344 520.265625 1680.089844 526.960938 L 1369.226562 526.960938 Z M 1369.226562 496.664062 L 1369.226562 475.355469 L 1650.675781 475.355469 C 1651.027344 475.355469 1651.203125 475.355469 1651.554688 475.179688 C 1653.84375 482.574219 1656.664062 489.796875 1660.1875 496.664062 Z M 1646.976562 405.785156 L 1379.792969 405.785156 L 1382.257812 402.613281 C 1382.257812 402.613281 1382.257812 402.613281 1382.257812 402.4375 L 1396.878906 384.121094 L 1652.261719 384.121094 C 1649.96875 391.34375 1648.210938 398.5625 1646.976562 405.785156 Z M 1209.480469 241.105469 C 1220.574219 239.167969 1231.847656 238.289062 1243.121094 238.289062 C 1316.386719 238.289062 1383.84375 278.09375 1419.597656 342.203125 L 1403.570312 362.28125 C 1373.628906 301.164062 1311.457031 261.890625 1243.121094 261.890625 C 1231.847656 261.890625 1220.574219 262.945312 1209.480469 265.058594 C 1209.480469 265.058594 1209.480469 241.105469 1209.480469 241.105469 Z M 1655.605469 375.492188 L 1404.097656 375.492188 L 1420.476562 355.0625 L 1665.46875 355.0625 C 1661.769531 361.578125 1658.425781 368.445312 1655.605469 375.492188 Z M 1242.941406 164.84375 C 1231.671875 164.84375 1220.398438 165.550781 1209.304688 166.957031 L 1209.304688 143.179688 C 1220.398438 141.949219 1231.671875 141.242188 1242.941406 141.242188 C 1264.78125 141.242188 1286.445312 143.53125 1307.582031 148.289062 C 1321.847656 158.503906 1334.527344 170.65625 1345.097656 184.394531 C 1312.6875 171.359375 1278.34375 164.84375 1242.941406 164.84375 Z M 1242.941406 132.4375 C 1231.671875 132.4375 1220.398438 133.140625 1209.304688 134.375 L 1209.304688 116.058594 C 1236.425781 116.410156 1262.84375 123.101562 1286.621094 135.609375 C 1272.355469 133.492188 1257.738281 132.4375 1242.941406 132.4375 Z M 1105.386719 133.140625 C 1106.796875 184.394531 1114.371094 231.949219 1122.472656 269.640625 L 1091.121094 269.640625 C 1079.5 221.027344 1074.742188 168.71875 1073.863281 159.207031 L 1097.464844 124.160156 Z M 1153.824219 306.625 C 1153.117188 304.6875 1151.003906 303.457031 1148.890625 303.808594 C 1146.777344 304.160156 1145.191406 305.921875 1145.191406 308.210938 L 1145.191406 324.414062 C 1143.433594 318.25 1141.496094 311.207031 1139.382812 303.28125 L 1157.699219 303.28125 C 1158.050781 308.914062 1158.402344 314.726562 1158.753906 320.363281 Z M 1215.113281 294.648438 C 1216.523438 292.183594 1217.40625 289.367188 1217.40625 286.371094 C 1217.40625 281.265625 1215.113281 276.683594 1211.59375 273.691406 C 1221.984375 271.753906 1232.550781 270.695312 1243.121094 270.695312 C 1309.519531 270.695312 1369.753906 309.621094 1397.40625 369.855469 L 1380.496094 390.8125 C 1370.988281 364.394531 1353.550781 340.792969 1331.183594 323.886719 C 1305.644531 304.511719 1275.175781 294.296875 1243.121094 294.296875 C 1233.960938 294.296875 1224.800781 295.175781 1215.820312 296.761719 Z M 1242.941406 303.101562 C 1273.0625 303.101562 1301.769531 312.789062 1325.722656 330.929688 C 1348.265625 348.015625 1365.351562 372.144531 1373.804688 399.09375 L 1359.363281 417.058594 C 1338.402344 362.457031 1285.917969 323.359375 1224.449219 322.125 L 1218.636719 305.394531 C 1226.738281 303.808594 1234.839844 303.101562 1242.941406 303.101562 Z M 1275.175781 509.171875 L 1275.175781 542.28125 L 1237.484375 448.054688 C 1233.257812 437.664062 1229.910156 426.921875 1227.621094 415.824219 C 1257.03125 437.488281 1275.175781 472.183594 1275.175781 509.171875 Z M 1734.6875 558.484375 C 1685.546875 535.414062 1653.667969 485.394531 1653.667969 430.972656 C 1653.667969 392.75 1669.34375 355.941406 1696.820312 329.523438 C 1706.683594 331.636719 1716.371094 334.804688 1725.527344 338.503906 C 1696.292969 360.167969 1679.03125 394.335938 1679.03125 430.792969 C 1679.03125 474.296875 1703.335938 512.339844 1739.089844 531.890625 C 1740.5 532.59375 1742.085938 533.476562 1743.492188 534.179688 C 1744.902344 534.886719 1746.488281 535.589844 1747.898438 536.292969 C 1761.988281 542.457031 1777.660156 545.980469 1794.21875 545.980469 C 1807.25 545.980469 1820.109375 543.691406 1832.261719 539.464844 L 1832.261719 561.832031 L 1745.960938 561.832031 C 1745.78125 561.128906 1745.429688 560.421875 1744.902344 559.894531 C 1744.550781 559.542969 1744.199219 559.191406 1743.667969 559.015625 C 1743.140625 558.664062 1742.4375 558.664062 1741.730469 558.664062 L 1735.390625 558.664062 C 1735.039062 558.664062 1734.863281 558.484375 1734.6875 558.484375 Z M 1739.265625 345.019531 C 1740.675781 345.726562 1742.261719 346.605469 1743.667969 347.488281 C 1745.078125 348.367188 1746.664062 349.25 1748.074219 349.953125 C 1751.59375 352.066406 1754.941406 354.179688 1758.289062 356.46875 C 1754.765625 358.230469 1751.242188 360.167969 1748.074219 362.28125 C 1746.488281 363.339844 1745.078125 364.394531 1743.667969 365.453125 C 1742.085938 366.683594 1740.675781 367.917969 1739.265625 369.152344 C 1722.007812 384.648438 1711.613281 406.839844 1711.613281 430.972656 C 1711.613281 455.453125 1722.359375 477.46875 1739.265625 492.613281 C 1740.675781 493.847656 1742.085938 495.082031 1743.667969 496.3125 C 1745.078125 497.371094 1746.488281 498.601562 1748.074219 499.484375 C 1761.28125 508.464844 1777.132812 513.75 1794.394531 513.75 C 1807.78125 513.75 1820.8125 510.578125 1832.4375 504.414062 L 1832.4375 530.128906 C 1820.285156 534.886719 1807.425781 537.175781 1794.394531 537.175781 C 1777.839844 537.175781 1762.164062 533.300781 1748.074219 526.605469 C 1746.664062 525.902344 1745.078125 525.199219 1743.667969 524.316406 C 1742.261719 523.4375 1740.675781 522.734375 1739.265625 521.851562 C 1708.621094 503.183594 1688.011719 469.367188 1688.011719 430.972656 C 1688.011719 395.570312 1705.625 362.632812 1734.863281 342.90625 C 1736.273438 343.613281 1737.679688 344.316406 1739.265625 345.019531 Z M 1785.761719 348.542969 C 1859.207031 348.542969 1920.324219 402.789062 1930.890625 473.417969 L 1903.945312 473.417969 C 1891.261719 420.578125 1846.527344 379.894531 1791.398438 373.554688 C 1782.59375 364.21875 1772.730469 355.765625 1761.988281 348.367188 L 1785.761719 348.367188 Z M 1748.074219 620.835938 L 1748.074219 599.875 L 1831.203125 599.875 L 1831.203125 620.835938 Z M 1831.203125 590.894531 L 1748.074219 590.894531 L 1748.074219 570.640625 L 1831.203125 570.640625 Z M 1772.90625 630.34375 L 1786.292969 630.34375 L 1786.292969 675.082031 L 1772.90625 675.082031 Z M 1743.667969 377.253906 C 1745.078125 375.84375 1746.488281 374.609375 1748.074219 373.378906 C 1748.25 373.203125 1748.425781 373.027344 1748.601562 373.027344 C 1753.707031 368.972656 1759.34375 365.628906 1765.507812 362.984375 C 1765.683594 362.808594 1766.039062 362.808594 1766.214844 362.632812 C 1770.441406 365.980469 1774.492188 369.503906 1778.367188 373.027344 C 1779.953125 374.433594 1781.535156 376.019531 1782.945312 377.605469 C 1784.179688 378.835938 1785.410156 380.070312 1786.46875 381.304688 C 1785.234375 381.480469 1784.179688 381.65625 1782.945312 382.007812 C 1771.851562 384.648438 1761.988281 390.8125 1755.117188 399.445312 C 1754.0625 400.851562 1753.003906 402.261719 1751.949219 403.847656 C 1751.066406 405.257812 1750.1875 406.664062 1749.480469 408.25 C 1748.953125 409.132812 1748.601562 410.1875 1748.074219 411.246094 C 1745.429688 417.410156 1744.023438 424.101562 1744.023438 431.148438 C 1744.023438 438.191406 1745.429688 444.886719 1748.074219 451.050781 C 1755.820312 469.015625 1773.609375 481.519531 1794.394531 481.519531 C 1807.78125 481.519531 1820.285156 476.234375 1829.617188 467.078125 C 1831.203125 476.058594 1832.261719 485.042969 1832.4375 494.375 C 1820.988281 501.246094 1807.78125 504.945312 1794.394531 504.945312 C 1776.957031 504.945312 1760.753906 498.78125 1748.074219 488.5625 C 1746.488281 487.332031 1745.078125 486.097656 1743.667969 484.6875 C 1742.085938 483.28125 1740.675781 481.695312 1739.265625 480.109375 C 1727.464844 467.078125 1720.421875 449.816406 1720.421875 430.792969 C 1720.421875 412.125 1727.289062 394.6875 1739.265625 381.480469 C 1740.5 380.070312 1742.085938 378.660156 1743.667969 377.253906 Z M 1759.519531 408.074219 C 1760.578125 406.488281 1761.632812 405.082031 1762.867188 403.671875 C 1764.277344 402.085938 1765.683594 400.675781 1767.269531 399.269531 C 1774.316406 393.28125 1783.472656 389.40625 1793.511719 389.40625 C 1798.09375 395.21875 1802.496094 401.207031 1806.371094 407.546875 C 1807.601562 409.660156 1809.011719 411.773438 1810.246094 414.0625 C 1811.476562 416.351562 1812.710938 418.640625 1813.945312 420.933594 C 1819.578125 432.203125 1823.984375 444.003906 1827.152344 456.332031 C 1819.226562 466.546875 1807.25 472.535156 1794.21875 472.535156 C 1771.320312 472.535156 1752.652344 453.867188 1752.652344 430.972656 C 1752.652344 422.515625 1755.292969 414.765625 1759.519531 408.074219 Z M 1836.664062 457.917969 C 1837.015625 456.507812 1836.664062 454.925781 1835.605469 453.691406 C 1833.492188 445.765625 1831.027344 437.839844 1827.859375 430.265625 C 1841.773438 441.539062 1852.691406 456.332031 1859.03125 473.417969 L 1839.480469 473.417969 C 1838.777344 468.308594 1837.722656 463.027344 1836.664062 457.917969 Z M 1820.636719 414.589844 C 1815 403.671875 1808.308594 393.632812 1800.558594 384.121094 C 1846.527344 393.28125 1883.335938 428.503906 1894.960938 473.59375 L 1868.191406 473.59375 C 1859.914062 448.757812 1842.828125 427.800781 1820.636719 414.589844 Z M 1905.882812 482.398438 L 1932.125 482.398438 C 1932.476562 486.625 1932.652344 491.03125 1932.652344 495.433594 L 1932.652344 562.007812 L 1907.644531 562.007812 L 1907.644531 504.0625 C 1907.644531 496.664062 1907.113281 489.445312 1905.882812 482.398438 Z M 1746.136719 629.640625 L 1764.101562 629.640625 L 1764.101562 675.082031 L 1746.136719 675.082031 Z M 1795.097656 675.082031 L 1795.097656 630.34375 L 1807.957031 630.34375 L 1807.957031 675.082031 Z M 1816.761719 629.640625 L 1832.261719 629.640625 L 1832.261719 675.082031 L 1816.761719 675.082031 Z M 1841.242188 535.0625 C 1841.773438 534.003906 1841.949219 532.59375 1841.417969 531.1875 C 1841.417969 531.011719 1841.242188 531.011719 1841.242188 530.835938 L 1841.242188 498.25 C 1841.242188 492.792969 1841.066406 487.507812 1840.539062 482.222656 L 1861.851562 482.222656 C 1863.964844 490.5 1865.195312 499.132812 1865.195312 507.9375 L 1865.195312 561.832031 L 1841.242188 561.832031 Z M 1870.832031 482.398438 L 1896.898438 482.398438 C 1898.132812 489.445312 1898.835938 496.664062 1898.835938 504.0625 L 1898.835938 562.007812 L 1874.003906 562.007812 L 1874.003906 508.113281 C 1874.003906 499.308594 1872.945312 490.675781 1870.832031 482.398438 Z M 1276.582031 703.964844 L 1276.582031 683.710938 L 1359.714844 683.710938 L 1359.714844 703.964844 Z M 1133.921875 809.289062 L 1102.042969 809.289062 C 1099.929688 796.433594 1088.832031 786.746094 1075.445312 786.746094 C 1060.652344 786.746094 1048.5 798.898438 1048.5 813.691406 C 1048.5 828.488281 1060.652344 840.640625 1075.445312 840.640625 C 1088.832031 840.640625 1099.929688 830.777344 1102.042969 818.097656 L 1133.746094 818.097656 C 1133.746094 816.863281 1133.570312 815.453125 1133.570312 814.222656 C 1133.570312 814.046875 1133.570312 813.867188 1133.570312 813.691406 C 1133.746094 812.109375 1133.746094 810.699219 1133.921875 809.289062 Z M 1075.445312 831.832031 C 1065.40625 831.832031 1057.304688 823.730469 1057.304688 813.691406 C 1057.304688 803.652344 1065.40625 795.550781 1075.445312 795.550781 C 1085.488281 795.550781 1093.589844 803.652344 1093.589844 813.691406 C 1093.589844 823.730469 1085.488281 831.832031 1075.445312 831.832031 Z M 1946.390625 786.21875 L 1946.390625 842.402344 C 1946.390625 844.867188 1944.453125 846.804688 1941.988281 846.804688 L 1886.15625 846.804688 C 1886.507812 845.394531 1887.035156 843.808594 1887.386719 842.402344 C 1887.742188 840.992188 1888.09375 839.40625 1888.445312 838 L 1937.585938 838 L 1937.585938 790.621094 L 1888.445312 790.621094 C 1888.09375 789.210938 1887.742188 787.625 1887.386719 786.21875 C 1887.035156 784.808594 1886.507812 783.222656 1886.15625 781.8125 L 1941.988281 781.8125 C 1944.453125 781.8125 1946.390625 783.75 1946.390625 786.21875 Z M 1667.757812 842.226562 C 1668.113281 843.632812 1668.640625 845.21875 1668.992188 846.628906 L 1355.664062 846.628906 C 1356.015625 845.21875 1356.542969 843.632812 1356.898438 842.226562 C 1357.25 840.816406 1357.601562 839.230469 1357.953125 837.820312 L 1666.703125 837.820312 C 1667.054688 839.40625 1667.40625 840.816406 1667.757812 842.226562 Z M 1820.636719 786.394531 C 1820.636719 786.394531 1820.636719 786.21875 1820.460938 786.21875 C 1819.578125 784.808594 1818.523438 783.398438 1817.464844 781.988281 L 1817.289062 781.8125 C 1816.058594 780.40625 1814.824219 778.996094 1813.414062 777.585938 C 1804.082031 768.429688 1791.398438 762.792969 1777.484375 762.792969 C 1763.570312 762.792969 1750.714844 768.429688 1741.554688 777.585938 C 1740.148438 778.996094 1738.914062 780.40625 1737.679688 781.8125 L 1737.503906 781.988281 C 1736.449219 783.398438 1735.390625 784.808594 1734.511719 786.21875 C 1734.511719 786.21875 1734.511719 786.394531 1734.335938 786.394531 C 1733.453125 787.800781 1732.574219 789.210938 1731.867188 790.621094 C 1728.171875 797.664062 1726.058594 805.765625 1726.058594 814.222656 C 1726.058594 822.675781 1728.171875 830.777344 1731.867188 837.820312 C 1732.574219 839.40625 1733.453125 840.816406 1734.511719 842.226562 C 1735.566406 843.808594 1736.625 845.21875 1737.679688 846.628906 C 1747.191406 858.253906 1761.457031 865.648438 1777.484375 865.648438 C 1793.511719 865.648438 1807.957031 858.253906 1817.289062 846.628906 C 1818.523438 845.21875 1819.578125 843.808594 1820.460938 842.226562 C 1821.339844 840.816406 1822.222656 839.40625 1823.101562 837.820312 C 1826.800781 830.777344 1828.914062 822.675781 1828.914062 814.222656 C 1828.914062 805.765625 1826.800781 797.664062 1823.101562 790.621094 C 1822.398438 789.035156 1821.691406 787.625 1820.636719 786.394531 Z M 1809.539062 842.226562 C 1808.132812 843.808594 1806.722656 845.21875 1805.136719 846.628906 C 1797.738281 852.96875 1788.054688 856.84375 1777.484375 856.84375 C 1766.917969 856.84375 1757.40625 852.96875 1749.832031 846.628906 C 1748.25 845.21875 1746.664062 843.808594 1745.429688 842.226562 C 1744.199219 840.816406 1743.140625 839.40625 1742.085938 837.820312 C 1737.503906 831.128906 1734.863281 822.851562 1734.863281 814.222656 C 1734.863281 805.414062 1737.503906 797.3125 1742.085938 790.621094 C 1743.140625 789.210938 1744.199219 787.800781 1745.253906 786.394531 L 1745.429688 786.21875 C 1746.839844 784.632812 1748.25 783.222656 1749.65625 781.988281 L 1749.832031 781.8125 C 1751.59375 780.230469 1753.707031 778.820312 1755.820312 777.585938 C 1762.164062 773.886719 1769.558594 771.597656 1777.484375 771.597656 C 1785.410156 771.597656 1792.808594 773.710938 1799.148438 777.585938 C 1801.261719 778.820312 1803.199219 780.230469 1805.136719 781.8125 L 1805.3125 781.988281 C 1806.898438 783.222656 1808.308594 784.632812 1809.539062 786.21875 L 1809.714844 786.394531 C 1810.949219 787.800781 1812.007812 789.210938 1812.886719 790.621094 C 1817.464844 797.3125 1820.109375 805.589844 1820.109375 814.222656 C 1820.109375 823.027344 1817.464844 831.128906 1812.886719 837.820312 C 1812.007812 839.40625 1810.773438 840.816406 1809.539062 842.226562 Z M 1290.320312 786.394531 C 1290.320312 786.394531 1290.320312 786.21875 1290.144531 786.21875 C 1289.265625 784.808594 1288.207031 783.398438 1287.152344 781.988281 L 1286.976562 781.8125 C 1285.742188 780.40625 1284.507812 778.996094 1283.101562 777.585938 C 1273.765625 768.429688 1261.085938 762.792969 1247.171875 762.792969 C 1240.476562 762.792969 1233.960938 764.203125 1227.972656 766.492188 C 1226.386719 767.019531 1224.976562 767.722656 1223.570312 768.429688 C 1221.984375 769.132812 1220.574219 770.011719 1219.167969 771.070312 C 1214.585938 774.066406 1210.710938 777.585938 1207.191406 781.8125 C 1205.957031 783.222656 1204.898438 784.632812 1204.019531 786.21875 C 1203.136719 787.625 1202.257812 789.035156 1201.378906 790.621094 C 1197.679688 797.664062 1195.566406 805.765625 1195.566406 814.222656 C 1195.566406 822.675781 1197.679688 830.777344 1201.378906 837.820312 C 1202.082031 839.40625 1202.960938 840.816406 1204.019531 842.226562 C 1205.074219 843.808594 1206.132812 845.21875 1207.191406 846.628906 C 1216.699219 858.253906 1230.964844 865.648438 1246.992188 865.648438 C 1263.019531 865.648438 1277.464844 858.253906 1286.796875 846.628906 C 1288.03125 845.21875 1289.089844 843.808594 1289.96875 842.226562 C 1290.847656 840.816406 1291.730469 839.40625 1292.609375 837.820312 C 1296.308594 830.777344 1298.421875 822.675781 1298.421875 814.222656 C 1298.421875 805.765625 1296.308594 797.664062 1292.609375 790.621094 C 1291.90625 789.035156 1291.203125 787.625 1290.320312 786.394531 Z M 1279.050781 842.226562 C 1277.640625 843.808594 1276.230469 845.21875 1274.644531 846.628906 C 1267.25 852.96875 1257.5625 856.84375 1246.992188 856.84375 C 1236.425781 856.84375 1226.914062 852.96875 1219.34375 846.628906 C 1217.757812 845.21875 1216.171875 843.808594 1214.9375 842.226562 C 1213.707031 840.816406 1212.648438 839.40625 1211.59375 837.820312 C 1207.011719 831.128906 1204.371094 822.851562 1204.371094 814.222656 C 1204.371094 805.414062 1207.011719 797.3125 1211.59375 790.621094 C 1212.648438 789.035156 1213.707031 787.625 1214.9375 786.21875 C 1216.171875 784.808594 1217.582031 783.398438 1218.988281 782.167969 C 1219.167969 781.988281 1219.167969 781.988281 1219.34375 781.8125 C 1220.574219 780.757812 1221.984375 779.699219 1223.394531 778.820312 C 1224.800781 777.9375 1226.210938 777.058594 1227.796875 776.179688 C 1233.609375 773.183594 1240.125 771.597656 1246.992188 771.597656 C 1254.917969 771.597656 1262.316406 773.710938 1268.65625 777.585938 C 1270.769531 778.820312 1272.707031 780.230469 1274.644531 781.8125 L 1274.820312 781.988281 C 1276.40625 783.222656 1277.816406 784.632812 1279.050781 786.21875 L 1279.226562 786.394531 C 1280.457031 787.800781 1281.515625 789.210938 1282.394531 790.621094 C 1286.976562 797.3125 1289.617188 805.589844 1289.617188 814.222656 C 1289.617188 823.027344 1286.976562 831.128906 1282.394531 837.820312 C 1281.515625 839.40625 1280.28125 840.816406 1279.050781 842.226562 Z M 1511.007812 825.140625 C 1504.667969 825.140625 1499.558594 820.035156 1499.558594 813.691406 C 1499.558594 807.351562 1504.667969 802.246094 1511.007812 802.246094 C 1517.347656 802.246094 1522.457031 807.351562 1522.457031 813.691406 C 1522.457031 820.035156 1517.171875 825.140625 1511.007812 825.140625 Z M 1594.84375 825.140625 C 1588.503906 825.140625 1583.394531 820.035156 1583.394531 813.691406 C 1583.394531 807.351562 1588.503906 802.246094 1594.84375 802.246094 C 1601.183594 802.246094 1606.292969 807.351562 1606.292969 813.691406 C 1606.292969 820.035156 1601.183594 825.140625 1594.84375 825.140625 Z M 1424.707031 825.140625 C 1418.363281 825.140625 1413.257812 820.035156 1413.257812 813.691406 C 1413.257812 807.351562 1418.363281 802.246094 1424.707031 802.246094 C 1431.046875 802.246094 1436.152344 807.351562 1436.152344 813.691406 C 1436.152344 820.035156 1431.046875 825.140625 1424.707031 825.140625 Z M 1424.707031 825.140625 " fill-opacity="1" fill-rule="nonzero"/></g></svg>