<svg xmlns="http://www.w3.org/2000/svg" xmlns:xlink="http://www.w3.org/1999/xlink" width="500" zoomAndPan="magnify" viewBox="0 0 375 374.999991" height="500" preserveAspectRatio="xMidYMid meet" version="1.0"><defs><clipPath id="20cc8ef3e9"><path d="M 64.3125 197 L 311 197 L 311 337.5 L 64.3125 337.5 Z M 64.3125 197 " clip-rule="nonzero"/></clipPath><clipPath id="f4dc522780"><path d="M 89 37.5 L 286 37.5 L 286 139 L 89 139 Z M 89 37.5 " clip-rule="nonzero"/></clipPath></defs><g clip-path="url(#20cc8ef3e9)"><path fill="#000000" d="M 230.105469 302.242188 L 225.566406 302.242188 L 225.566406 278.433594 C 225.566406 257.453125 208.492188 240.382812 187.511719 240.382812 C 187.226562 240.382812 186.945312 240.398438 186.664062 240.402344 C 204.957031 245.1875 218.453125 261.820312 218.453125 281.613281 L 218.453125 302.242188 L 144.921875 302.242188 L 144.921875 278.433594 C 144.921875 254.910156 163.988281 235.839844 187.511719 235.839844 C 211.035156 235.839844 230.105469 254.910156 230.105469 278.433594 Z M 285.597656 298.113281 L 285.597656 258.878906 L 260.488281 258.878906 L 260.488281 209.648438 C 237.140625 201.375 212.261719 197.050781 187.511719 197.050781 C 162.765625 197.050781 137.886719 201.371094 114.539062 209.640625 L 114.539062 258.878906 L 89.429688 258.878906 L 89.429688 298.113281 L 64.320312 298.113281 L 64.320312 337.347656 L 310.707031 337.347656 L 310.707031 298.113281 L 285.597656 298.113281 " fill-opacity="1" fill-rule="nonzero"/></g><path fill="#000000" d="M 242.109375 78.5 L 242.109375 46.929688 L 219.824219 52.972656 L 219.824219 74.96875 C 227.304688 75.847656 234.753906 77.023438 242.109375 78.5 " fill-opacity="1" fill-rule="nonzero"/><g clip-path="url(#f4dc522780)"><path fill="#000000" d="M 278.964844 57.765625 C 268.476562 52.910156 257.550781 48.902344 246.363281 45.777344 L 246.363281 83.738281 C 233.410156 80.882812 220.296875 78.984375 207.128906 78.039062 L 207.128906 38.558594 C 200.601562 37.960938 194.054688 37.652344 187.511719 37.652344 C 180.972656 37.652344 174.425781 37.960938 167.894531 38.558594 L 167.894531 78.039062 C 154.726562 78.984375 141.613281 80.882812 128.660156 83.738281 L 128.660156 45.777344 C 117.472656 48.902344 106.546875 52.910156 96.058594 57.765625 L 89.429688 60.835938 L 89.429688 138.140625 C 120.5 123.757812 154.007812 116.570312 187.511719 116.570312 C 221.019531 116.570312 254.523438 123.757812 285.597656 138.140625 L 285.597656 60.835938 L 278.964844 57.765625 " fill-opacity="1" fill-rule="nonzero"/></g><path fill="#000000" d="M 132.914062 78.5 L 132.914062 46.929688 L 155.199219 52.972656 L 155.199219 74.96875 C 147.722656 75.847656 140.269531 77.023438 132.914062 78.5 " fill-opacity="1" fill-rule="nonzero"/><path fill="#000000" d="M 114.539062 192.945312 C 138.214844 185.164062 162.863281 181.269531 187.511719 181.269531 C 212.164062 181.269531 236.808594 185.167969 260.488281 192.949219 L 260.488281 155.53125 L 285.597656 155.53125 L 278.964844 152.460938 C 250.539062 139.304688 218.914062 132.351562 187.511719 132.351562 C 156.109375 132.351562 124.484375 139.304688 96.058594 152.460938 L 89.429688 155.53125 L 114.539062 155.53125 L 114.539062 192.945312 " fill-opacity="1" fill-rule="nonzero"/><path fill="#ffffff" d="M 279.21875 304.488281 L 279.21875 265.253906 L 254.109375 265.253906 L 254.109375 214.203125 C 244.125 210.90625 233.828125 208.328125 223.4375 206.53125 C 211.527344 204.472656 199.441406 203.429688 187.511719 203.429688 L 187.511719 229.464844 C 214.515625 229.464844 236.484375 251.433594 236.484375 278.433594 L 236.484375 308.621094 L 187.511719 308.621094 L 187.511719 330.96875 L 304.328125 330.96875 L 304.328125 304.488281 L 279.21875 304.488281 " fill-opacity="1" fill-rule="nonzero"/><path fill="#ffffff" d="M 187.511719 138.726562 L 187.511719 174.894531 C 187.515625 174.894531 187.519531 174.894531 187.523438 174.894531 C 210.113281 174.894531 232.46875 178.058594 254.109375 184.308594 L 254.109375 149.496094 C 232.6875 142.414062 210.042969 138.726562 187.511719 138.726562 " fill-opacity="1" fill-rule="nonzero"/><path fill="#ffffff" d="M 276.289062 63.554688 C 268.703125 60.046875 260.8125 56.964844 252.742188 54.355469 L 252.742188 91.675781 L 244.988281 89.964844 C 232.429688 87.195312 219.539062 85.320312 206.671875 84.398438 L 200.75 83.972656 L 200.75 44.457031 C 196.3125 44.175781 191.878906 44.03125 187.511719 44.03125 L 187.511719 110.195312 L 187.523438 110.195312 C 218.820312 110.195312 250.3125 116.460938 279.21875 128.390625 L 279.21875 64.910156 L 276.289062 63.554688 " fill-opacity="1" fill-rule="nonzero"/></svg>